<?xml version="1.0" encoding="UTF-8" standalone="no"?>
<!-- Generator: Adobe Illustrator 17.1.0, SVG Export Plug-In . SVG Version: 6.00 Build 0)  -->

<svg
   xmlns:dc="http://purl.org/dc/elements/1.1/"
   xmlns:cc="http://creativecommons.org/ns#"
   xmlns:rdf="http://www.w3.org/1999/02/22-rdf-syntax-ns#"
   xmlns:svg="http://www.w3.org/2000/svg"
   xmlns="http://www.w3.org/2000/svg"
   xmlns:sodipodi="http://sodipodi.sourceforge.net/DTD/sodipodi-0.dtd"
   xmlns:inkscape="http://www.inkscape.org/namespaces/inkscape"
   version="1.1"
   id="Capa_1"
   x="0px"
   y="0px"
   viewBox="0 0 312.78646 312.78646"
   xml:space="preserve"
   sodipodi:docname="justifier-logo.svg"
   inkscape:version="0.92.4 (5da689c313, 2019-01-14)"
   width="312.78647"
   height="312.78647"
   inkscape:export-filename="B:\Data\R\justifier\img\justifier-logo.png"
   inkscape:export-xdpi="76.730003"
   inkscape:export-ydpi="76.730003"><metadata
   id="metadata891"><rdf:RDF><cc:Work
       rdf:about=""><dc:format>image/svg+xml</dc:format><dc:type
         rdf:resource="http://purl.org/dc/dcmitype/StillImage" /><dc:title></dc:title></cc:Work></rdf:RDF></metadata><defs
   id="defs889"><linearGradient
     id="gradientFill-1"
     x1="0.7414425"
     x2="590.86261"
     y1="3.6658268"
     y2="593.78699"
     gradientUnits="userSpaceOnUse"
     spreadMethod="pad"
     gradientTransform="scale(1.2219423,0.81836924)"><stop
       offset="0"
       stop-color="rgb(203,206,208)"
       stop-opacity="1"
       id="stop2686" /><stop
       offset="1"
       stop-color="rgb(132,131,139)"
       stop-opacity="1"
       id="stop2688" /></linearGradient><linearGradient
     id="gradientFill-2"
     x1="301.02603"
     x2="703.0675"
     y1="151.4006"
     y2="553.44208"
     gradientUnits="userSpaceOnUse"
     spreadMethod="pad"
     gradientTransform="scale(0.9899476,1.0101545)"><stop
       offset="0"
       stop-color="rgb(39,109,195)"
       stop-opacity="1"
       id="stop2691" /><stop
       offset="1"
       stop-color="rgb(22,92,170)"
       stop-opacity="1"
       id="stop2693" /></linearGradient></defs><sodipodi:namedview
   pagecolor="#ffffff"
   bordercolor="#666666"
   borderopacity="1"
   objecttolerance="10"
   gridtolerance="10"
   guidetolerance="10"
   inkscape:pageopacity="0"
   inkscape:pageshadow="2"
   inkscape:window-width="1920"
   inkscape:window-height="1013"
   id="namedview887"
   showgrid="false"
   inkscape:zoom="1.3520926"
   inkscape:cx="180.33755"
   inkscape:cy="109.68263"
   inkscape:window-x="-9"
   inkscape:window-y="-9"
   inkscape:window-maximized="1"
   inkscape:current-layer="layer3"
   inkscape:snap-bbox="true"
   inkscape:bbox-paths="true"
   inkscape:bbox-nodes="true"
   inkscape:snap-bbox-midpoints="true"
   inkscape:snap-bbox-edge-midpoints="true"
   inkscape:snap-page="true"
   inkscape:snap-intersection-paths="true"
   inkscape:object-paths="true"
   inkscape:snap-midpoints="true"
   inkscape:snap-smooth-nodes="true"
   inkscape:snap-global="true"
   fit-margin-top="10"
   fit-margin-left="10"
   fit-margin-right="10"
   fit-margin-bottom="10" />

<g
   inkscape:groupmode="layer"
   id="layer3"
   inkscape:label="Background"
   transform="translate(29.607779,10)"><rect
     style="color:#000000;clip-rule:nonzero;display:inline;overflow:visible;visibility:visible;opacity:1;isolation:auto;mix-blend-mode:normal;color-interpolation:sRGB;color-interpolation-filters:linearRGB;solid-color:#000000;solid-opacity:1;fill:#ffffff;fill-opacity:1;fill-rule:nonzero;stroke:none;stroke-width:2.66480947;stroke-linecap:square;stroke-linejoin:miter;stroke-miterlimit:4;stroke-dasharray:none;stroke-dashoffset:0;stroke-opacity:1;color-rendering:auto;image-rendering:auto;shape-rendering:auto;text-rendering:auto;enable-background:accumulate"
     id="rect4899"
     width="312.78647"
     height="312.78647"
     x="-29.607779"
     y="-10" /><path
     style="color:#000000;clip-rule:nonzero;display:inline;overflow:visible;visibility:visible;opacity:1;isolation:auto;mix-blend-mode:normal;color-interpolation:sRGB;color-interpolation-filters:linearRGB;solid-color:#000000;solid-opacity:1;fill:#000000;fill-opacity:1;fill-rule:nonzero;stroke:none;stroke-width:3.77952766;stroke-linecap:square;stroke-linejoin:miter;stroke-miterlimit:4;stroke-dasharray:none;stroke-dashoffset:0;stroke-opacity:1;color-rendering:auto;image-rendering:auto;shape-rendering:auto;text-rendering:auto;enable-background:accumulate"
     d="M 126.48629,11.497835 9.83395,78.847444 9.81442,213.57597 l 116.68163,67.36718 116.66994,-67.38086 0.002,-134.699216 z"
     id="path4879"
     inkscape:connector-curvature="0" /><g
     style="display:inline"
     id="g4889"
     transform="translate(-216.44412,-13.780427)"><rect
       y="83.738213"
       x="246.82246"
       height="32.172352"
       width="195.2529"
       id="rect4884"
       style="color:#000000;clip-rule:nonzero;display:inline;overflow:visible;visibility:visible;opacity:1;isolation:auto;mix-blend-mode:normal;color-interpolation:sRGB;color-interpolation-filters:linearRGB;solid-color:#000000;solid-opacity:1;fill:#ffffff;fill-opacity:1;fill-rule:nonzero;stroke:none;stroke-width:3.77952766;stroke-linecap:square;stroke-linejoin:miter;stroke-miterlimit:4;stroke-dasharray:none;stroke-dashoffset:0;stroke-opacity:1;color-rendering:auto;image-rendering:auto;shape-rendering:auto;text-rendering:auto;enable-background:accumulate" /><text
       id="text4842"
       y="110.66405"
       x="242.56696"
       style="font-style:normal;font-variant:normal;font-weight:normal;font-stretch:normal;font-size:12.5px;line-height:25px;font-family:'Shanti (Greater Good Version)';-inkscape-font-specification:'Shanti (Greater Good Version)';letter-spacing:0px;word-spacing:0px;fill:#000000;fill-opacity:1;stroke:none;stroke-width:1px;stroke-linecap:butt;stroke-linejoin:miter;stroke-opacity:1"
       xml:space="preserve"><tspan
         style="font-style:normal;font-variant:normal;font-weight:normal;font-stretch:normal;font-size:37.33333206px;font-family:'Impact Label';-inkscape-font-specification:'Impact Label'"
         y="110.66405"
         x="242.56696"
         id="tspan4840"
         sodipodi:role="line">justifier</tspan></text>
</g><path
     transform="translate(23.499255,15.274542)"
     class="cls-3"
     d="m 113.39672,271.67251 95.85186,-55.33593 20.81807,-12.04415 0.004,-24.02118 -0.003,-110.678129 0.004,-11.670354 -126.78123,-73.197309 -10.104388,5.8394045 -97.0532754,56.0366965 -19.6166916,11.343383 -0.01532,22.66023 0.01466,112.039078 -0.0047,11.67036 126.781465,73.19731 z M -13.68358,198.30271 -13.665691,63.573479 102.98704,-3.7767071 219.669,63.589661 219.66812,198.28897 v 0 l -116.67019,67.38009 z"
     id="path1094"
     inkscape:connector-curvature="0"
     style="display:inline;isolation:isolate;fill:#800000;fill-opacity:1;stroke-width:0.3450262" /></g><g
   id="g856"
   transform="translate(53.107034,25.274542)">
</g>
<g
   id="g858"
   transform="translate(53.107034,25.274542)">
</g>
<g
   id="g860"
   transform="translate(53.107034,25.274542)">
</g>
<g
   id="g862"
   transform="translate(53.107034,25.274542)">
</g>
<g
   id="g864"
   transform="translate(53.107034,25.274542)">
</g>
<g
   id="g866"
   transform="translate(53.107034,25.274542)">
</g>
<g
   id="g868"
   transform="translate(53.107034,25.274542)">
</g>
<g
   id="g870"
   transform="translate(53.107034,25.274542)">
</g>
<g
   id="g872"
   transform="translate(53.107034,25.274542)">
</g>
<g
   id="g874"
   transform="translate(53.107034,25.274542)">
</g>
<g
   id="g876"
   transform="translate(53.107034,25.274542)">
</g>
<g
   id="g878"
   transform="translate(53.107034,25.274542)">
</g>
<g
   id="g880"
   transform="translate(53.107034,25.274542)">
</g>
<g
   id="g882"
   transform="translate(53.107034,25.274542)">
</g>
<g
   id="g884"
   transform="translate(53.107034,25.274542)">
</g>
<g
   inkscape:groupmode="layer"
   id="layer1"
   inkscape:label="Original"
   style="display:none"
   transform="translate(53.107034,25.274542)"><path
     style="display:inline"
     d="m 154.067,206.573 c -0.422,0 -0.839,-0.134 -1.188,-0.391 -0.515,-0.38 -0.816,-0.982 -0.813,-1.622 l 0.221,-36.007 -38.886,8.371 c -6.712,1.445 -13.519,1.445 -20.23,0 l -38.886,-8.371 0.221,36.007 c 0.004,0.64 -0.298,1.242 -0.813,1.622 -0.516,0.38 -1.182,0.491 -1.79,0.298 -0.778,-0.246 -19.139,-6.333 -24.505,-33.164 l -0.795,-3.956 c -5.365,-26.661 -12.712,-63.171 -7.728,-94.499 0.003,-0.023 0.007,-0.047 0.011,-0.07 5.31,-33.249 21.046,-56.848 44.312,-66.449 21.736,-8.971 38.358,-8.392 40.088,-8.303 1.727,-0.089 18.351,-0.668 40.088,8.303 23.266,9.601 39.002,33.199 44.312,66.449 0.004,0.023 0.008,0.047 0.011,0.07 4.984,31.328 -2.362,67.838 -7.728,94.499 l -0.795,3.956 c -5.366,26.831 -23.727,32.918 -24.505,33.164 -0.197,0.063 -0.4,0.093 -0.602,0.093 z m -48.781,-73.109 v 17.724 l 19.082,12.721 6.867,-6.104 -11.687,-12.317 c -0.398,-0.421 -0.596,-0.994 -0.539,-1.57 0.056,-0.577 0.359,-1.102 0.832,-1.437 l 53.852,-38.264 c 0.757,-0.537 1.789,-0.484 2.484,0.134 0.696,0.617 0.875,1.633 0.432,2.451 l -20.133,37.114 -0.172,22.17 v 0 l -0.218,35.417 c 4.94,-2.604 15.411,-10.195 19.167,-28.972 l 0.795,-3.96 c 5.125,-25.467 12.078,-60.022 8.154,-89.941 l -70.265,48.823 c -0.189,0.2 -0.42,0.361 -0.677,0.471 l -7.974,5.54 m -4,-0.002 -7.974,-5.54 c -0.257,-0.109 -0.488,-0.271 -0.678,-0.472 L 22.372,78.63 c -3.924,29.919 3.029,64.475 8.154,89.941 l 0.795,3.96 c 3.722,18.607 14.23,26.292 19.166,28.943 L 50.27,166.086 v -0.001 L 50.097,143.914 29.964,106.8 c -0.443,-0.818 -0.265,-1.834 0.432,-2.451 0.697,-0.617 1.728,-0.672 2.484,-0.133 l 53.851,38.263 c 0.473,0.335 0.776,0.859 0.832,1.437 0.057,0.576 -0.141,1.149 -0.539,1.57 l -11.687,12.317 6.867,6.104 19.082,-12.721 m -47.028,13.27 39.756,8.559 c 6.154,1.324 12.393,1.324 18.547,0 l 39.756,-8.559 0.165,-21.071 c 0.003,-0.328 0.086,-0.649 0.242,-0.938 l 16.261,-29.977 -44.946,31.936 11.522,12.144 c 0.373,0.394 0.57,0.921 0.547,1.462 -0.022,0.541 -0.265,1.05 -0.669,1.41 l -9.565,8.503 c -0.682,0.604 -1.682,0.674 -2.438,0.169 l -20.147,-13.432 -20.147,13.432 c -0.758,0.506 -1.758,0.434 -2.438,-0.169 l -9.565,-8.503 c -0.404,-0.36 -0.646,-0.869 -0.669,-1.41 -0.023,-0.541 0.174,-1.068 0.547,-1.462 L 82.539,144.406 37.591,112.47 53.852,142.447 c 0.156,0.289 0.239,0.61 0.242,0.938 z m 41.801,-39.495 7.228,5.021 7.228,-5.021 1.419,-49.695 H 94.641 Z m -14.5,-10.075 10.418,7.238 L 90.64,75.266 H 78.485 c 0.788,17.127 2.634,35.397 3.074,39.62 z m 34.375,-39.62 -1.338,46.858 10.419,-7.239 c 0.44,-4.225 2.286,-22.495 3.074,-39.619 z M 23.035,74.221 77.234,111.88 c -0.743,-7.529 -2.221,-23.628 -2.833,-38.455 -0.004,-0.05 -0.006,-0.101 -0.006,-0.151 -0.168,-4.114 -0.27,-8.128 -0.27,-11.83 0,-0.775 0.005,-1.566 0.013,-2.371 -0.002,-0.016 -0.003,-0.031 -0.005,-0.047 -0.014,-0.155 -0.01,-0.31 0.011,-0.458 0.228,-17.977 2.451,-42.572 3.25,-50.894 -3.945,1.099 -8.203,2.521 -12.67,4.365 -21.653,8.937 -36.427,30.993 -41.689,62.182 z m 109.14,-0.829 c -0.611,14.836 -2.09,30.951 -2.834,38.488 L 183.539,74.221 C 178.277,43.033 163.502,20.975 141.85,12.039 c -4.471,-1.845 -8.728,-3.27 -12.669,-4.368 0.798,8.317 3.022,32.917 3.25,50.896 0.021,0.148 0.024,0.303 0.011,0.458 -0.002,0.016 -0.003,0.031 -0.005,0.047 0.008,0.805 0.013,1.596 0.013,2.371 0,3.712 -0.102,7.738 -0.271,11.863 -0.001,0.029 -0.002,0.057 -0.004,0.086 z m -18.173,-2.126 h 14.253 c 0.123,-3.412 0.194,-6.728 0.194,-9.822 0,-0.251 0,-0.503 -0.001,-0.757 -4.052,-0.316 -14.312,-1.022 -25.161,-1.022 -10.854,0 -21.109,0.706 -25.16,1.022 -10e-4,0.254 -10e-4,0.506 -10e-4,0.757 0,3.094 0.071,6.411 0.194,9.822 h 14.253 0.023 21.382 z M 103.287,55.664 c 10.667,0 20.769,0.674 25.112,1.007 -0.375,-18.852 -2.736,-43.906 -3.341,-50.063 -12.894,-3.056 -21.529,-2.576 -21.646,-2.569 -0.084,0.006 -0.168,0.006 -0.248,0 -0.118,-0.008 -8.779,-0.47 -21.648,2.575 -0.604,6.164 -2.965,31.21 -3.34,50.058 4.343,-0.334 14.445,-1.008 25.111,-1.008 z"
     id="path854"
     inkscape:connector-curvature="0"
     sodipodi:nodetypes="scccccccccccccccccccccscccccccccccccccccccccccccccccccsccccccccccccccccccccccccscccccccccccccccccccccccccccsccccccccccccccsccccscscscccccscccccc" /></g><g
   inkscape:groupmode="layer"
   id="g4697"
   inkscape:label="Back part"
   style="display:inline"
   transform="translate(53.107034,25.274542)"><path
     style="display:inline;fill:#003380;fill-opacity:1;fill-rule:evenodd;stroke:none;stroke-width:1px;stroke-linecap:butt;stroke-linejoin:miter;stroke-opacity:1"
     d="m 137.41211,185.85352 14.9043,-3.39844 4.16015,-20.53896 20.26986,-37.42783 -5.08179,-0.83 -51.82283,36.82218 -32.470491,0.75455 -52.237746,-37.41761 -0.638816,9.3339 15.602909,28.76275 0.171875,22.17188 52.812619,11.9212 34.32996,-10.34308 z"
     id="path4791"
     inkscape:connector-curvature="0" /><path
     style="display:inline;fill:#0044aa"
     d="m 152.54688,160.90039 c -0.041,0.15814 -0.063,0.31953 -0.0645,0.48438 0.002,-0.164 0.0238,-0.32713 0.0645,-0.48438 z m -15.13477,24.76367 c -8.28377,1.78426 -16.56769,3.56777 -24.85156,5.35156 -6.154,1.32401 -12.39288,1.32401 -18.546882,0 l -39.755856,-8.56054 0.02734,4.09765 38.886719,8.3711 c 6.711,1.445 13.516519,1.445 20.228519,0 l 38.88672,-8.3711 0.0293,-4.09765 m -99.033207,41.95898 c -0.103141,0.0435 -0.212097,0.0682 -0.320312,0.0938 0.108294,-0.0257 0.217105,-0.0501 0.320312,-0.0938 z"
     id="path4695"
     inkscape:connector-curvature="0"
     sodipodi:nodetypes="ccccccccccccccc" /></g><g
   style="display:none"
   inkscape:label="Top part"
   id="g4668"
   inkscape:groupmode="layer"
   transform="translate(53.107034,25.274542)"><path
     style="display:inline"
     d="M 101.95898,0.00195312 C 97.321305,-0.04584373 82.216266,0.49217179 63.197266,8.3417969 40.657881,17.64295 25.186377,40.082509 19.414062,71.705078 l 3.621094,2.515625 c 5.262,-31.189 20.036453,-53.244638 41.689453,-62.181641 4.467,-1.843999 8.724922,-3.2662339 12.669922,-4.3652339 -0.777093,8.0938309 -2.887245,31.5370669 -3.21289,49.3574219 1.324133,-0.125886 2.685867,-0.250273 4.107421,-0.367188 -0.0294,0.0023 -0.08438,0.0056 -0.113281,0.0078 0.375,-18.848 2.735844,-43.894594 3.339844,-50.0585938 12.869,-3.0449999 21.530435,-2.5822187 21.648435,-2.5742187 0.08,0.006 0.16405,0.006 0.24805,0 0.0293,-0.00175 0.59169,-0.033016 1.61914,-0.03125 3.08236,0.0053 10.35684,0.3076094 20.02734,2.5996094 0.605,6.1570001 2.96485,31.2124531 3.33985,50.0644531 -0.43301,-0.0332 -1.15493,-0.08015 -1.69727,-0.119141 1.98736,0.159324 3.89543,0.331886 5.69336,0.507813 -0.32382,-17.826053 -2.43632,-41.29507 -3.21289,-49.388672 3.941,1.098 8.19697,2.522188 12.66797,4.367187 21.652,8.936002 36.42745,30.993641 41.68945,62.181641 l 3.61914,-2.515625 C 181.38595,40.081674 165.91243,17.64295 143.37305,8.3417969 c -21.737,-8.97100011 -38.36089,-8.3917344 -40.08789,-8.3027344 -0.21625,-0.011125 -0.66365,-0.03028125 -1.32618,-0.03710938 z m 1.32813,55.66210888 c 1.81023,0 3.59266,0.02471 5.34375,0.05859 -1.75359,-0.03395 -3.53209,-0.05859 -5.34375,-0.05859 z m 6.51562,0.08398 c 0.90333,0.02097 1.76297,0.0506 2.63672,0.07813 -0.88051,-0.02776 -1.72634,-0.05702 -2.63672,-0.07813 z m 7.31055,0.253906 c 0.62947,0.02835 1.28191,0.05399 1.88086,0.08398 -0.61476,-0.03081 -1.23386,-0.05491 -1.88086,-0.08398 z m 6.91211,0.365235 c 0.2185,0.01557 0.4431,0.02897 0.66016,0.04492 -0.24343,-0.01598 -0.40443,-0.02867 -0.66016,-0.04492 z"
     id="path4666"
     inkscape:connector-curvature="0" /></g><g
   inkscape:groupmode="layer"
   id="g4707"
   inkscape:label="Badge"
   style="display:none"
   transform="translate(53.107034,25.274542)"><rect
     style="color:#000000;clip-rule:nonzero;display:inline;overflow:visible;visibility:visible;opacity:1;isolation:auto;mix-blend-mode:normal;color-interpolation:sRGB;color-interpolation-filters:linearRGB;solid-color:#000000;solid-opacity:1;fill:#d4aa00;fill-opacity:1;fill-rule:nonzero;stroke:none;stroke-width:3.77952766;stroke-linecap:square;stroke-linejoin:miter;stroke-miterlimit:4;stroke-dasharray:none;stroke-dashoffset:0;stroke-opacity:1;color-rendering:auto;image-rendering:auto;shape-rendering:auto;text-rendering:auto;enable-background:accumulate"
     id="rect4789"
     width="21.96483"
     height="18.696255"
     x="92.566071"
     y="120.93732" /><path
     style="display:inline;fill:#d4aa00;fill-opacity:1;fill-rule:evenodd;stroke:none;stroke-width:1px;stroke-linecap:butt;stroke-linejoin:miter;stroke-opacity:1"
     d="M 96.058675,124.96094 H 110.5157 l 18.82618,-13.08008 3.09581,-52.808592 -58.293159,-0.503909 3.089925,53.312511 z"
     id="path4787"
     inkscape:connector-curvature="0" /><path
     style="display:inline;fill:#aa8800;fill-opacity:1;stroke:none"
     d="m 103.28711,55.664062 c -10.595037,0 -20.60804,0.663776 -24.998048,1 -1.421554,0.116915 -2.783288,0.241302 -4.107421,0.367188 -0.0092,0.502364 -0.03086,1.044225 -0.03711,1.537109 -0.021,0.148 -0.02572,0.302032 -0.01172,0.457032 l 0.0059,0.04688 c -0.008,0.805 -0.01367,1.596093 -0.01367,2.371093 0,3.702 0.101531,7.716077 0.269531,11.830079 0,0.05 0.0019,0.102343 0.0059,0.152343 0.612,14.827 2.090984,30.926084 2.833984,38.455084 l 4.324219,3.00391 c -0.440368,-4.2251 -2.286287,-22.493638 -3.074219,-39.61915 h 12.15625 l 1.335937,46.85742 4.082032,2.83789 -1.417969,-49.69531 h 17.292964 l -1.41797,49.69531 18.82618,-13.08008 c 0.744,-7.537 2.22298,-23.652277 2.83398,-38.488277 0.002,-0.029 0.003,-0.05694 0.004,-0.08594 0.169,-4.125 0.26953,-8.151282 0.26953,-11.863282 0,-0.775 -0.004,-1.566093 -0.0117,-2.371093 0.002,-0.016 0.002,-0.03088 0.004,-0.04688 0.013,-0.155 0.0116,-0.310985 -0.01,-0.458985 -0.006,-0.482924 -0.0282,-1.013827 -0.0371,-1.505859 -1.79793,-0.175927 -3.706,-0.348489 -5.69336,-0.507813 -0.64404,-0.0463 -1.23327,-0.08927 -2.01562,-0.140625 -0.21706,-0.01595 -0.44166,-0.02936 -0.66016,-0.04492 -5.17188,-0.328728 -12.79073,-0.703126 -20.73828,-0.703126 z m 0,4 c 10.849,0 21.10816,0.707438 25.16016,1.023438 0.001,0.254 0.002,0.504859 0.002,0.755859 0,3.094 -0.0704,6.410266 -0.19336,9.822266 H 114.002 113.9786 92.595783 92.572343 78.320389 c -0.123,-3.411 -0.193359,-6.728266 -0.193359,-9.822266 0,-0.251 -0.001,-0.501859 0,-0.755859 4.051,-0.316 14.306144,-1.023438 25.16016,-1.023438 z m 12.64648,15.601563 h 12.15625 c -0.788,17.124 -2.63422,35.394145 -3.07422,39.619145 l -10.41992,7.23828 z"
     id="path4712"
     inkscape:connector-curvature="0" /></g><g
   inkscape:groupmode="layer"
   id="layer2"
   inkscape:label="Bottom part"
   style="display:inline"
   transform="translate(53.107034,25.274542)"><path
     d="m 19.414062,89.705078 c -0.186084,1.019436 -0.361508,2.047545 -0.527343,3.085938 -0.004,0.023 -0.0087,0.04731 -0.01172,0.07031 -4.984,31.328004 2.363516,67.837044 7.728516,94.498054 l 0.794922,3.95703 c 5.365999,26.831 23.725906,32.91806 24.503906,33.16406 0.608,0.193 1.275015,0.0812 1.791015,-0.29883 0.515,-0.38 0.8165,-0.98109 0.8125,-1.62109 L 54.384766,202.85156 H 54.257812 V 182.45508 L 54.09375,161.38477 c -0.003,-0.328 -0.08619,-0.6485 -0.242188,-0.9375 L 37.591797,130.4707 82.539062,162.40625 71.017578,174.55078 c -0.373,0.394 -0.569875,0.91994 -0.546875,1.46094 0.023,0.541 0.263969,1.05015 0.667969,1.41016 l 9.564453,8.5039 c 0.68,0.603 1.681453,0.67397 2.439453,0.16797 l 20.146482,-13.43164 20.14649,13.43164 c 0.756,0.505 1.7555,0.43603 2.4375,-0.16797 l 9.5664,-8.5039 c 0.404,-0.36001 0.64597,-0.86916 0.66797,-1.41016 0.023,-0.541 -0.17387,-1.06694 -0.54687,-1.46094 l -11.52149,-12.14453 44.94532,-31.93555 -16.25977,29.97657 c -0.156,0.289 -0.23919,0.6095 -0.24219,0.9375 l -0.16601,21.07031 v 20.39648 h -0.12891 l -0.12109,19.70899 c -0.003,0.64 0.2975,1.24109 0.8125,1.62109 0.349,0.257 0.7655,0.39063 1.1875,0.39063 0.202,0 0.40651,-0.0288 0.60351,-0.0918 0.778,-0.246 19.13791,-6.33306 24.50391,-33.16406 l 0.79492,-3.95703 c 5.366,-26.66102 12.71252,-63.17005 7.72852,-94.498052 -0.003,-0.023 -0.008,-0.04731 -0.0117,-0.07031 -0.16584,-1.038424 -0.34126,-2.066475 -0.52735,-3.085938 l -3.61914,2.515625 -54.19726,37.660155 -18.82618,13.08008 -7.22851,5.02148 -7.228516,-5.02148 -4.082032,-2.83789 -10.417968,-7.23633 c 0,0 0,-0.002 0,-0.002 L 77.234375,129.88086 23.035156,92.220703 Z m 2.957032,6.925782 70.263672,48.81836 c 0.19,0.201 0.420734,0.36365 0.677734,0.47266 l 7.97266,5.54101 2.00195,1.39063 1.99805,-1.38868 7.97461,-5.54101 c 0.257,-0.11 0.48873,-0.27069 0.67773,-0.47071 l 70.26367,-48.82226 c 3.924,29.919 -3.02734,64.47245 -8.15234,89.93945 l -0.79492,3.96094 c -3.756,18.777 -14.22797,26.36866 -19.16797,28.97266 l 0.21875,-35.41797 0.17187,-22.16992 20.13282,-37.11329 c 0.443,-0.818 0.26435,-1.83417 -0.43165,-2.45117 -0.695,-0.618 -1.72737,-0.67176 -2.48437,-0.13476 l -53.85156,38.26367 c -0.473,0.335 -0.77603,0.8605 -0.83203,1.4375 -0.057,0.576 0.14106,1.14931 0.53906,1.57031 l 11.68555,12.31641 -6.86719,6.10351 -19.08203,-12.7207 -1.99805,-1.38867 -2.00195,1.39062 v -0.004 l -19.082035,12.7207 -6.865234,-6.10352 11.685547,-12.3164 c 0.397998,-0.421 0.596062,-0.99431 0.539062,-1.57031 -0.056,-0.578 -0.359031,-1.1025 -0.832031,-1.4375 L 32.880859,122.2168 c -0.756,-0.539 -1.787375,-0.48419 -2.484375,0.13281 -0.697,0.617 -0.87464,1.63317 -0.43164,2.45117 l 20.132812,37.11328 0.171875,22.17188 0.216797,35.38867 c -4.936,-2.651 -15.444015,-10.33636 -19.166016,-28.94336 l -0.794921,-3.96094 c -5.125,-25.466 -12.078297,-60.02045 -8.154297,-89.93945 z m 115.041016,89.0332 -0.87891,0.18946 h 0.87891 z"
     id="path4600"
     inkscape:connector-curvature="0"
     style="display:inline;fill:#800000;fill-opacity:1;stroke:none" /></g><g
   style="display:inline"
   inkscape:label="Bottom part fill"
   id="g4774"
   inkscape:groupmode="layer"
   transform="translate(53.107034,25.274542)"><path
     style="color:#000000;clip-rule:nonzero;display:inline;overflow:visible;visibility:visible;opacity:1;isolation:auto;mix-blend-mode:normal;color-interpolation:sRGB;color-interpolation-filters:linearRGB;solid-color:#000000;solid-opacity:1;fill:#ff0000;fill-opacity:1;fill-rule:nonzero;stroke:none;stroke-width:3.77952766;stroke-linecap:square;stroke-linejoin:miter;stroke-miterlimit:4;stroke-dasharray:none;stroke-dashoffset:0;stroke-opacity:1;color-rendering:auto;image-rendering:auto;shape-rendering:auto;text-rendering:auto;enable-background:accumulate"
     d="m 137.41211,185.66406 -0.87891,0.18946 h 0.87891 z"
     id="path4785"
     inkscape:connector-curvature="0" /><path
     style="color:#000000;clip-rule:nonzero;display:inline;overflow:visible;visibility:visible;opacity:1;isolation:auto;mix-blend-mode:normal;color-interpolation:sRGB;color-interpolation-filters:linearRGB;solid-color:#000000;solid-opacity:1;fill:#ff0000;fill-opacity:1;fill-rule:nonzero;stroke:none;stroke-width:3.77952766;stroke-linecap:square;stroke-linejoin:miter;stroke-miterlimit:4;stroke-dasharray:none;stroke-dashoffset:0;stroke-opacity:1;color-rendering:auto;image-rendering:auto;shape-rendering:auto;text-rendering:auto;enable-background:accumulate"
     d="m 137.41211,185.66406 v 0.18946 h -0.87891 z"
     id="path4783"
     inkscape:connector-curvature="0" /><path
     style="color:#000000;clip-rule:nonzero;display:inline;overflow:visible;visibility:visible;opacity:1;isolation:auto;mix-blend-mode:normal;color-interpolation:sRGB;color-interpolation-filters:linearRGB;solid-color:#000000;solid-opacity:1;fill:#d40000;fill-opacity:1;fill-rule:nonzero;stroke:none;stroke-width:3.77952766;stroke-linecap:square;stroke-linejoin:miter;stroke-miterlimit:4;stroke-dasharray:none;stroke-dashoffset:0;stroke-opacity:1;color-rendering:auto;image-rendering:auto;shape-rendering:auto;text-rendering:auto;enable-background:accumulate"
     d="m 22.371094,96.63086 c -0.4905,3.73987 -0.810928,7.55223 -0.986328,11.41016 -0.1754,3.85792 -0.205303,7.76122 -0.115235,11.68359 0.09007,3.92237 0.299563,7.86367 0.605469,11.79687 0.305906,3.93321 0.707575,7.85762 1.179688,11.74805 0.944224,7.78087 2.171159,15.42282 3.482421,22.71094 1.311263,7.28812 2.707032,14.22334 3.988282,20.58984 l 0.794921,3.96094 c 0.465251,2.32587 1.036277,4.48049 1.689454,6.47656 0.653176,1.99607 1.388811,3.83417 2.18164,5.52344 0.792829,1.68927 1.643136,3.23126 2.527344,4.63672 0.884208,1.40546 1.801202,2.67371 2.728516,3.81836 1.854627,2.28929 3.74892,4.08081 5.486328,5.46484 1.737407,1.38404 3.318734,2.36069 4.552734,3.02344 L 50.269531,184.08594 50.097656,161.91406 29.964844,124.80078 c -0.2215,-0.409 -0.287098,-0.86736 -0.210938,-1.30078 0.07616,-0.43342 0.294078,-0.84189 0.642578,-1.15039 0.3485,-0.3085 0.781235,-0.47655 1.220704,-0.5 0.439468,-0.0234 0.885671,0.0977 1.263671,0.36719 l 53.84961,38.26172 c 0.473,0.335 0.776031,0.8595 0.832031,1.4375 0.057,0.576 -0.141064,1.14931 -0.539062,1.57031 l -11.685547,12.3164 6.865234,6.10352 19.082035,-12.7207 v 0.004 l 2.00195,-1.39062 1.99805,1.38867 19.08203,12.7207 6.86719,-6.10351 -11.68555,-12.31641 c -0.398,-0.421 -0.59606,-0.99431 -0.53906,-1.57031 0.056,-0.577 0.35903,-1.1025 0.83203,-1.4375 l 53.85156,-38.26367 c 0.3785,-0.2685 0.82603,-0.3888 1.26562,-0.36524 0.4396,0.0236 0.87125,0.191 1.21875,0.5 0.348,0.3085 0.56629,0.71698 0.64258,1.15039 0.0763,0.43342 0.0106,0.89178 -0.21093,1.30078 l -20.13282,37.11329 -0.17187,22.16992 -0.21875,35.41797 c 1.235,-0.651 2.81566,-1.61308 4.55078,-2.98438 1.73512,-1.3713 3.62406,-3.15223 5.47656,-5.4375 0.92625,-1.14263 1.84469,-2.41092 2.72852,-3.81836 0.88382,-1.40744 1.73378,-2.95393 2.52734,-4.65039 0.79356,-1.69646 1.5301,-3.54305 2.18555,-5.55273 0.65545,-2.00969 1.22972,-4.18217 1.69922,-6.5293 l 0.79492,-3.96094 c 1.28125,-6.36675 2.6772,-13.30167 3.98828,-20.58984 1.31108,-7.28817 2.53649,-14.93013 3.48047,-22.71094 0.47199,-3.8904 0.87389,-7.81488 1.17969,-11.74805 0.30579,-3.93316 0.51549,-7.87454 0.60546,-11.79687 0.09,-3.92233 0.0602,-7.82569 -0.11523,-11.68359 -0.17545,-3.85791 -0.49583,-7.67029 -0.98633,-11.41016 l -70.26367,48.82216 c -0.189,0.20002 -0.42073,0.36071 -0.67773,0.47071 l -7.97461,5.54101 -1.99805,1.38868 -2.00195,-1.39063 -7.97266,-5.54101 c -0.257,-0.10901 -0.487734,-0.27166 -0.677734,-0.47266 z"
     id="path4781"
     inkscape:connector-curvature="0" /></g></svg>